<svg width="580" height="400" xmlns="http://www.w3.org/2000/svg">
 <!-- Created with Method Draw - http://github.com/duopixel/Method-Draw/ -->

 <g>
  <title>background</title>
  <rect x="-1" y="-1" width="582" height="402" id="canvas_background" fill="#307a7a"/>
  <g id="canvasGrid" display="none">
   <rect id="svg_2" width="100%" height="100%" x="0" y="0" stroke-width="0" fill="url(#gridpattern)"/>
  </g>
 </g>
 <g>
  <title>Layer 1</title>
  <path fill="none" stroke="#255" stroke-width="1.5" stroke-opacity="null" fill-opacity="null" d="m187.505829,164.202591l0,0c0,-8.836319 6.938843,-15.999451 15.498367,-15.999451l0,0c4.110519,0 8.052597,1.685989 10.959015,4.686081c2.906418,3.000412 4.539749,7.069778 4.539749,11.31337l0,0c0,8.835953 -6.93927,15.999069 -15.498764,15.999069l0,0c-8.559509,0 -15.498367,-7.163116 -15.498367,-15.999069zm7.748993,0l0,0c0,4.417969 3.469574,7.999527 7.749374,7.999527c4.279739,0 7.74939,-3.581558 7.74939,-7.999527c0,-4.418335 -3.46965,-7.999924 -7.74939,-7.999924l0,0c-4.2798,0 -7.749374,3.581589 -7.749374,7.999924z" id="svg_3"/>
  <path fill="none" stroke="#255" stroke-width="1.5" stroke-opacity="null" fill-opacity="null" d="m101.994453,216.802368l10.695175,0l3.304642,-11.839661l3.305107,11.839661l10.695053,0l-8.652649,7.316681l3.305267,11.840118l-8.652786,-7.317627l-8.652382,7.317627l3.305061,-11.840118l-8.652504,-7.316681l0,0l0.000023,0l-0.000008,0z" id="svg_4"/>
  <path fill="none" stroke="#255" stroke-width="1.5" fill-opacity="null" d="m108.337852,162.373077l11.999977,-26.999725l12.000046,26.999725l-24.000038,0l0.000023,0l-0.000008,0z" id="svg_5"/>
  <path fill="none" stroke="#255" stroke-width="1.5" stroke-opacity="null" d="m163.681961,217.033157l0,-33.002457l25.00325,33.002457l-25.00325,0z" id="svg_1"/>
  <path fill="none" stroke="#255" stroke-width="1.5" stroke-opacity="null" fill-opacity="null" d="m145.146439,115.939453l12.998077,-13.499985l12.998108,13.499985l-12.998108,13.499969l-12.998077,-13.499969z" id="svg_6"/>
  <path fill="none" stroke="#255" stroke-width="1.5" stroke-opacity="null" fill-opacity="null" d="m225.376907,213.439621l15,-11.457214l14.999985,11.457214l-5.729492,18.538925l-18.541077,0l-5.729416,-18.538925z" id="svg_7"/>
  <path fill="none" stroke="#255" stroke-width="1.5" stroke-opacity="null" fill-opacity="null" d="m159.70105,264.292969l7.713715,-12.498276l20.568909,0l7.713699,12.498276l-7.713699,12.49826l-20.568909,0l-7.713715,-12.49826z" id="svg_8"/>
  <path fill="none" stroke="#255" stroke-width="1.5" stroke-opacity="null" fill-opacity="null" d="m240.876862,112.668648c6.390671,-15.356026 31.429749,0 0,19.743599c-31.430115,-19.743599 -6.390656,-35.099617 0,-19.743599z" id="svg_9"/>
  <path fill="none" stroke="#255" stroke-width="1.5" stroke-opacity="null" fill-opacity="null" d="m297.181671,165.552002c0,1.19664 -7.610596,2.166718 -16.999817,2.166718m16.999817,-2.166718l0,0c0,1.19664 -7.610596,2.166718 -16.999817,2.166718c-9.388885,0 -17.000153,-0.970078 -17.000153,-2.166718m0,0l0,0c0,-1.196884 7.611267,-2.167038 17.000153,-2.167038c9.389221,0 16.999817,0.970139 16.999817,2.167038l0,8.667694c0,1.196671 -7.610596,2.166809 -16.999817,2.166809c-9.388885,0 -17.000153,-0.970139 -17.000153,-2.166809l0,-8.667694z" id="svg_10"/>
  <path fill="none" stroke="#255" stroke-width="1.5" stroke-opacity="null" fill-opacity="null" d="m236.318314,267.12326l43.999985,0l0,11.999969l-43.999985,0l0,-11.999969z" id="svg_12"/>
  <path fill="none" stroke="#255" stroke-width="1.5" stroke-opacity="null" fill-opacity="null" d="m122.673302,82.396751c0.024391,-0.221558 0.038376,-0.444824 0.038376,-0.669769c0,-3.914444 -3.675476,-7.088211 -8.212868,-7.088211c-3.519028,0 -6.514687,1.91571 -7.681488,4.603111c-0.773903,-0.731941 -1.87867,-1.200912 -3.118103,-1.200912c-2.335648,0 -4.230446,1.633636 -4.230446,3.649651c0,0.238838 0.029877,0.470673 0.082047,0.695686c-3.115761,0.443024 -5.50193,2.763611 -5.50193,5.577515c0,3.132286 2.941544,5.670937 6.57077,5.670937l20.86087,0c3.629173,0 6.568314,-2.538651 6.568314,-5.670937c0.002075,-2.779274 -2.317612,-5.080894 -5.375542,-5.567062l0,-0.000008z" id="svg_14"/>
  <path fill="none" stroke="#255" stroke-width="1.5" stroke-opacity="null" fill-opacity="null" d="m195.305771,86.645569c-4.280579,0 -7.749069,-2.436279 -7.749069,-5.439735l0,0c0,-2.411385 2.238556,-4.442345 5.328674,-5.153351l0,0c0.106857,-2.050301 2.503036,-3.685555 5.447906,-3.686981l0,0c0.942017,0 1.824768,0.171585 2.593887,0.469002l0,0c1.635498,-1.90918 4.611465,-3.188934 8.021027,-3.188934l0,0c5.096954,0.001434 9.243393,2.859619 9.362061,6.417931l0,0c3.050797,0.729042 5.246399,2.750282 5.246399,5.142334l0,0c0,3.003456 -3.46907,5.439735 -7.749649,5.439735l0,0l-20.501221,0l0,0l-0.000015,0zm21.443329,-8.999352c-0.66243,-0.085846 -1.115677,-0.509201 -1.052475,-0.978188l0,0c0.01976,-0.154861 0.035202,-0.304283 0.035202,-0.450974l0,0c-0.011597,-2.62719 -3.038666,-4.754906 -6.78363,-4.757767l0,0c-2.904709,-0.002716 -5.376617,1.285324 -6.342468,3.090744l0,0c-0.157043,0.293259 -0.523499,0.511795 -0.965714,0.571327l0,0c-0.441467,0.059532 -0.898087,-0.047081 -1.197937,-0.279503l0,0c-0.539764,-0.410889 -1.273407,-0.662636 -2.108795,-0.662636l0,0c-1.584778,0.001427 -2.86142,0.899208 -2.869659,2.010216l0,0c0,0.123093 0.023621,0.25032 0.059326,0.38456l0,0c0.062973,0.240723 -0.011658,0.489754 -0.209122,0.690392l0,0c-0.201172,0.203369 -0.50885,0.337479 -0.851624,0.376259l0,0c-2.451157,0.283653 -4.327698,1.76664 -4.324158,3.563759l0,0c0.004303,2.003342 2.314194,3.621994 5.167725,3.627441l0,0l20.501221,0c2.854156,-0.005447 5.159653,-1.6241 5.167435,-3.627441l0,0c0.003845,-1.77494 -1.820862,-3.245605 -4.225342,-3.558167l0,0" id="svg_15"/>
  <path fill="none" stroke="#255" stroke-width="1.5" stroke-opacity="null" fill-opacity="null" d="m103.982399,275.634583l0,0c0,-7.179871 5.820259,-12.999878 13.000031,-12.999878l0,0c3.44783,0 6.754402,1.369629 9.1922,3.807678c2.438026,2.437714 3.807777,5.744171 3.807777,9.1922l0,0c0,7.179718 -5.820427,13.000153 -12.999977,13.000153l0,0c-7.179771,0 -13.000031,-5.820435 -13.000031,-13.000153zm13.000031,-12.999878l0,26.000031m-13.000031,-13.000153l26.000008,0" id="svg_16"/>
  <path fill="none" stroke="#255" stroke-width="1.5" stroke-opacity="null" fill-opacity="null" d="m322.124207,136.464706c0.823578,-0.308304 1.498688,-0.5952 0.220367,-0.603546c-1.128998,0.154678 -4.050873,-0.982986 -1.708405,-1.542191c1.463562,-0.583191 4.796906,0.763779 4.814453,-1.540314c-0.264526,-1.444183 -4.564331,-0.316544 -3.149506,-2.253387c1.557251,-0.649567 4.645477,0.880951 5.168579,-1.12912c-0.478455,-1.949165 -3.475067,-0.705124 -4.980377,-1.24379c-1.460114,0.307022 -1.844635,-1.650932 -0.206146,-1.35527c3.786926,-0.208435 7.60144,0.09742 11.376099,-0.327881c0.608948,-0.34446 1.059998,-2.46328 0.290222,-2.605888c-5.497437,-0.116356 -11.006134,-0.009506 -16.495392,-0.356003c-1.972626,-0.020866 -0.465302,-2.168846 0.991943,-1.664436c1.388,-0.463562 1.938599,-1.679161 2.957703,-2.879608c0.519989,-2.623779 -1.981903,-1.650009 -3.004059,-0.882233c-1.141327,0.762901 -3.104218,2.346794 -4.145386,3.178123c-0.912506,0.673225 -3.015442,1.420128 -4.294708,2.322327c-1.09317,0.3964 -2.29007,0.199158 -3.363495,0.270393c0,3.554947 0,7.110092 0,10.664886c3.038177,1.349426 6.235138,2.534607 9.603241,2.399017c1.97348,-0.008072 4.003662,0.067215 5.924866,-0.45108l0,0zm-12.518219,1.14003c-1.55072,-0.607742 -3.098724,-1.223373 -4.635254,-1.867355c0.072845,-4.43959 0.146454,-8.879044 0.220367,-13.318459c1.226288,-0.047569 3.047607,0.573227 3.92215,-0.340942c2.351624,-0.76973 3.87851,-2.472366 5.940125,-3.750237c1.45166,-1.162712 2.609741,-1.559464 4.10849,-2.441261c1.137512,-0.536903 1.753876,-0.262703 3.035278,-0.028664c0.55957,0.93293 1.252777,1.415062 0.893463,3.192314c-0.751709,0.385475 -1.726746,2.976227 -0.249573,2.996948c4.110291,0.401649 8.286865,-0.162979 12.365204,0.539177c1.015625,1.402283 1.209473,4.552643 -0.648621,5.441833c-1.779694,0.524658 -3.654694,0.264252 -5.482361,0.327454c0,1.326599 0.215546,3.01944 -1.228271,3.685883c-1.065735,1.417969 -1.141479,3.501205 -2.859497,4.538879c-1.443939,1.509766 -3.500488,1.976166 -5.506073,1.926331c-3.289642,0.045639 -6.752228,0.367035 -9.875427,-0.901932l0,0l0,0l0,0.000031z" id="svg_17"/>
  <path fill="none" stroke="#255" stroke-width="1.5" stroke-opacity="null" fill-opacity="null" d="m79.817078,170.162308c-1.61412,-1.719666 -3.861259,-1.16774 -5.01844,1.235291l-9.074867,18.853287c-0.826103,1.714691 -0.561234,4.103561 0.59288,5.333191c1.153847,1.227158 2.757736,0.832642 3.583878,-0.884399l6.407692,-13.31041l-0.835243,-0.891251l-6.406715,13.311859l0,0c-0.496323,1.027939 -1.459167,1.265518 -2.14959,0.53038c-0.69136,-0.735931 -0.84977,-2.169601 -0.354485,-3.199478l0,0l9.073799,-18.852371l0.001175,-0.000992l-0.002045,-0.00145c0.825142,-1.711227 2.434105,-2.106689 3.584984,-0.880524c1.150848,1.227203 1.417038,3.621841 0.593086,5.334152l0,-0.000977l-9.946587,20.664047l0.000931,0.002029c-1.154839,2.398682 -3.407158,2.952545 -5.019272,1.235458c-1.612099,-1.720673 -1.9832,-5.068558 -0.829178,-7.46907l7.228661,-15.016724l-0.835541,-0.89032l-7.228371,15.017181c-1.4869,3.08873 -1.009171,7.384598 1.067497,9.596893c2.076645,2.213379 4.963913,1.501877 6.450745,-1.585464l9.946381,-20.665146c1.15403,-2.402161 0.783928,-5.743835 -0.831383,-7.465164l0,0l0.000008,-0.000015l0,-0.000015z" id="svg_18"/>
  <path fill="none" stroke="#255" stroke-width="1.5" stroke-opacity="null" fill-opacity="null" d="m73.926338,115.669472c-0.968338,-0.449974 -2.133888,-0.064293 -2.606201,0.867561c-0.470016,0.931641 -0.063957,2.052238 0.903732,2.503746c3.036888,1.420334 5.132904,4.407249 5.130608,7.868523c-0.00959,4.825989 -4.074471,8.731445 -9.098038,8.74025c-5.025028,-0.008804 -9.090611,-3.914261 -9.100307,-8.74025c-0.001411,-3.464134 2.095299,-6.453674 5.135189,-7.869972c0.969955,-0.4515 1.372307,-1.572098 0.903702,-2.503746c-0.47007,-0.930405 -1.634052,-1.318985 -2.604004,-0.868904c-4.340027,2.019287 -7.33308,6.296494 -7.335278,11.242622c0.002197,6.896637 5.819439,12.485764 13.000698,12.487137c7.179764,-0.001373 12.99781,-5.5905 12.999313,-12.487137c-0.00219,-4.943222 -2.99157,-9.218948 -7.329414,-11.23983zm-5.669899,9.210571c1.076294,0 1.948769,-0.837532 1.948769,-1.87368l0,-8.741684c0,-1.034546 -0.872467,-1.872086 -1.948769,-1.872086c-1.078461,0 -1.950203,0.83754 -1.950203,1.872086l0,8.740257c0,1.036133 0.871742,1.875114 1.950203,1.875114l0,-0.000008z" id="svg_20"/>
  <path fill="none" stroke="#255" stroke-width="1.5" stroke-opacity="null" fill-opacity="null" d="m155.728546,299.471222l0,27.002899l34.00386,0l0,-27.002899l-34.00386,0zm28.650818,24.685608l-23.297577,0l0,-22.368256l23.297577,0l0,22.368256zm-17.632431,-13.601105c1.798782,0 3.254913,-1.401917 3.254913,-3.12149c0,-1.727509 -1.456131,-3.129303 -3.254913,-3.129303c-1.794678,0 -3.251419,1.401794 -3.251419,3.129303c0,1.719574 1.456772,3.12149 3.251419,3.12149zm16.37561,2.715515l-6.195358,-5.940643l-8.708221,8.361603l-2.413681,-2.317444l-3.466248,3.327911l0,6.243683l20.783508,0l0,-9.67511z" id="svg_21"/>
  <path fill="none" stroke="#255" stroke-width="1.5" stroke-opacity="null" fill-opacity="null" d="m256.242096,304.447632l-28.74028,0l14.371841,8.452362l14.368439,-8.452362zm-13.520477,12.05011c-0.262833,0.152802 -0.557175,0.232697 -0.847977,0.232697s-0.585175,-0.079895 -0.851242,-0.232697l-14.648819,-8.610992l0,17.564148l30.999985,0l0,-17.564148l-14.651962,8.610992l0.000015,0z" id="svg_22"/>
  <path fill="none" stroke="#255" stroke-width="1.5" stroke-opacity="null" fill-opacity="null" d="m82.177689,250.241867l-4.018059,-3.747208l0,-8.95578l-3.443657,0l0,5.738815l-8.036453,-7.498398l-15.497898,14.46257l3.68985,-0.082092l0,14.619522l23.452236,0l0,-14.53743l3.853973,0l0.000008,0zm-15.498161,12.445267l-7.653839,0l0,-8.567108l7.653839,0l0,8.567108zm7.435844,-3.672882l-5.029305,0l0,-4.946457l5.029305,0l0,4.946457z" id="svg_23"/>
  <path fill="none" stroke="#255" stroke-width="1.5" stroke-opacity="null" fill-opacity="null" d="m163.751846,60.654289c-3.313766,0 -6.002579,3.01479 -6.002579,6.733818c0,3.719681 6.002579,16.270142 6.002579,16.270142s5.999954,-12.550446 5.999954,-16.270142c0,-3.719028 -2.686081,-6.733818 -5.999954,-6.733818zm0,9.95211c-1.584991,0 -2.8694,-1.440659 -2.8694,-3.218292s1.284409,-3.2183 2.8694,-3.2183s2.866867,1.441353 2.866867,3.2183s-1.284439,3.218292 -2.866867,3.218292z" id="svg_24"/>
  <path fill="none" stroke="#255" stroke-width="1.5" stroke-opacity="null" fill-opacity="null" d="m112.005836,318.376923c-0.005096,-2.589111 -1.996635,-4.685516 -4.454018,-4.685516l0,-0.007202l-13.650566,0c-0.562531,-1.894867 -2.239731,-3.289673 -4.236603,-3.289673l-3.203163,0c-2.458977,0 -4.450516,2.095276 -4.455666,4.684723l0,16.631775c0.00515,2.582214 1.996696,4.678314 4.455666,4.685486l21.092163,0c2.455544,-0.007172 4.448914,-2.103271 4.452187,-4.685486l0,-13.334106l0,0l0.000015,0l-0.000015,0zm-25.544327,-5.643799l3.203163,0c1.164177,0 2.134445,0.98053 2.20755,2.203308l0.064636,1.09433l15.616791,0c1.216713,0.007172 2.222733,1.065826 2.226196,2.346161l0,0.5802c-0.65934,-0.400421 -1.412315,-0.651672 -2.228027,-0.651672l-21.090317,0c-0.815712,0 -1.570313,0.251251 -2.227859,0.651672l0,-3.877869c0.00325,-1.279999 1.009529,-2.338959 2.227859,-2.34613l0.000008,0zm21.090317,21.317383l-21.090317,0c-1.216743,0 -2.222778,-1.059113 -2.227859,-2.339478l0,-8.720337l0.00164,0c0.00161,-1.280182 1.007889,-2.346527 2.226219,-2.346527l21.092148,0c1.216713,0 2.215973,1.059174 2.226204,2.333038l0,8.726166c-0.003464,1.288025 -1.011108,2.347137 -2.228035,2.347137z" id="svg_25"/>
  <path fill="none" stroke="#255" stroke-width="1.5" stroke-opacity="null" fill-opacity="null" d="m339.902222,275.889496c-2.041321,1.838654 -2.840088,4.348389 -2.455475,6.73056l3.786499,-3.401001c0,-0.006592 0.015076,-0.013184 0.015076,-0.013184c0.258942,-0.439819 0.562073,-0.865509 0.976196,-1.231628c2.144867,-1.937469 5.635742,-1.937469 7.787872,0c2.152313,1.936737 2.152313,5.072479 0,7.016205c-0.414368,0.365692 -0.880249,0.64502 -1.368225,0.871979c-0.007324,0.006592 -0.007324,0.006592 -0.014954,0.012726l-3.779205,3.409119c2.647766,0.339447 5.436005,-0.373291 7.477051,-2.210693c3.431732,-3.088776 3.431732,-8.094879 0,-11.184082c-3.431549,-3.087891 -8.993164,-3.087891 -12.424835,0zm-1.346008,19.046906c-0.251434,0.44519 -0.562134,0.864319 -0.968719,1.238251c-2.152222,1.930267 -5.643127,1.930267 -7.795319,0c-2.152283,-1.936981 -2.152283,-5.0802 0,-7.01712c0.414063,-0.366089 0.880249,-0.644958 1.368073,-0.871857c0.007324,-0.006592 0.007324,-0.013611 0.015167,-0.013611l3.778778,-3.408905c-2.647736,-0.345337 -5.435791,0.374054 -7.476898,2.210419c-3.431671,3.082611 -3.431671,8.095154 0,11.18454c3.431793,3.088562 8.993103,3.088562 12.424927,0c2.041229,-1.837738 2.840118,-4.347656 2.455566,-6.737152l-3.786682,3.407501c-0.007538,0.007935 -0.007538,0.007935 -0.014893,0.007935zm-6.197784,-3.468048l2.662445,2.396088c0.650848,0.585968 1.71579,0.585968 2.366638,0l10.058502,-9.054047c0.650726,-0.586761 0.650726,-1.544159 0,-2.129608l-2.662628,-2.396729c-0.650879,-0.585754 -1.715698,-0.585754 -2.366638,0l-10.058319,9.053375c-0.650757,0.584442 -0.650757,1.544373 0,2.13092z" id="svg_26"/>
  <path fill="none" stroke="#255" stroke-width="1.5" stroke-opacity="null" fill-opacity="null" d="m312.50235,318.327179l-4.847351,0l0,-1.883789l-12.126068,0l0,1.883789l-4.855042,0c-1.428467,0 -2.582153,1.129974 -2.582153,2.521362l0,13.069305c0,1.391754 1.153687,2.521729 2.582153,2.521729l21.828461,0c1.428711,0 2.589417,-1.129974 2.589417,-2.521729l0,-13.069305c0,-1.391388 -1.160706,-2.521362 -2.589417,-2.521362zm-10.909943,16.690399c-4.326355,0 -7.839294,-3.42157 -7.839294,-7.634613c0,-4.212524 3.512939,-7.633728 7.839294,-7.633728s7.838989,3.421204 7.838989,7.633728c0,4.213043 -3.521118,7.634613 -7.838989,7.634613zm0,-12.754272c-2.906219,0 -5.258301,2.290741 -5.258301,5.119659c0,2.829529 2.352081,5.112915 5.258301,5.112915c2.896454,0 5.249512,-2.283386 5.249512,-5.112915c0,-2.828918 -2.353058,-5.119659 -5.249512,-5.119659z" id="svg_27"/>
  <path fill="none" stroke="#255" stroke-width="1.5" stroke-opacity="null" fill-opacity="null" d="m365.80896,168.813507c-2.042542,-1.945755 -4.256134,-3.506516 -6.061157,-3.716995c-0.10083,-0.013779 -0.201172,-0.024109 -0.315491,-0.024109l-11.914825,0c-0.193146,0 -0.379913,0.069962 -0.51535,0.206726c-0.129791,0.129562 -0.207977,0.312103 -0.207977,0.501724l0,29.586761c0,0.185959 0.071167,0.360901 0.207977,0.498032c0.135437,0.133301 0.322205,0.206726 0.51535,0.206726l21.551117,0c0.193024,0 0.372131,-0.073425 0.515839,-0.206726c0.136261,-0.133362 0.207611,-0.312073 0.207611,-0.498032l0,-19.688431c-0.042633,-2.286209 -1.869507,-4.779617 -3.983093,-6.865677zm-1.017273,1.00293c0.944946,0.901306 1.798004,1.924927 2.428314,2.910049c-0.544159,-0.213776 -1.125153,-0.371292 -1.662384,-0.494125c-1.196198,-0.263046 -2.356934,-0.368134 -3.087463,-0.410141c0.007019,-0.154633 0.007019,-0.326385 0.007019,-0.512238c0,-0.998962 -0.064728,-2.422546 -0.415771,-3.677902c-0.007019,-0.010803 -0.007019,-0.021225 -0.014038,-0.034988c0.895508,0.57811 1.877594,1.349915 2.744324,2.219345zm3.553223,24.839294l-20.110931,0l0,-28.170135l11.205017,0l0,0c0.487946,-0.02832 0.910339,0.444687 1.233154,1.524918c0.292755,1.027267 0.365234,2.370422 0.365234,3.299469c0,0.680191 -0.035797,1.136169 -0.035797,1.136169l-0.057465,0.750092l0.773865,0.007446c0,0 1.776123,0.020813 3.518005,0.41011c1.676331,0.354279 2.987549,1.059006 3.108917,1.858444c0,0.069901 0,0.140381 0,0.20694l0,18.976547l0,0z" id="svg_29"/>
  <path fill="none" stroke="#255" stroke-width="1.5" stroke-opacity="null" fill-opacity="null" d="m313.405731,76.821259c0.025208,-0.205406 0.042664,-0.412498 0.042664,-0.621315c0,-3.631485 -3.898102,-6.57592 -8.696594,-6.57592c-3.728027,0 -6.904327,1.777229 -8.136017,4.270515c-0.823273,-0.679108 -1.987091,-1.11422 -3.303406,-1.11422c-2.471527,0 -4.475494,1.515594 -4.475494,3.385941c0,0.221634 0.025452,0.436752 0.084808,0.645424c-3.30368,0.410927 -5.826019,2.563835 -5.826019,5.174255c0,2.905983 3.116882,5.261154 6.955383,5.261154l3.219116,0c-0.178497,-0.27935 -0.280182,-0.584244 -0.280182,-0.903793c0,-0.56189 0.288269,-1.093376 0.814728,-1.48838l6.021057,-4.554619c0.518494,-0.396553 1.214844,-0.616531 1.961884,-0.616531c0.756317,0 1.452087,0.221519 1.97052,0.618141l6.021149,4.554779c0.517975,0.393234 0.815063,0.924721 0.815063,1.48661c0,0.31955 -0.101654,0.624443 -0.280334,0.903793l1.826141,0c3.838715,0 6.955475,-2.355171 6.955475,-5.261154c0,-2.578186 -2.454529,-4.713509 -5.689941,-5.164696l0,0.000008l0,0.000008zm-10.632629,4.220711c-0.271973,-0.203766 -0.62851,-0.304901 -0.985443,-0.304901s-0.704529,0.101143 -0.976166,0.304901l-6.021057,4.556343c-0.543701,0.409531 -0.543701,1.078957 0,1.488297l0.772827,0.58432c0.543549,0.407814 1.341461,0.472115 1.774597,0.143013s0.789978,-0.12529 0.789978,0.45433l0,1.303528c0,0.578018 0.627869,1.051682 1.392517,1.051682l4.543549,0c0.764435,0 1.393219,-0.473663 1.393219,-1.051682l0,-1.303528c0,-0.57962 0.356079,-0.781822 0.789398,-0.45433c0.433258,0.329102 1.23111,0.264801 1.774811,-0.143013l0.772919,-0.58432c0.543243,-0.40934 0.543243,-1.078766 0,-1.488297l-6.021149,-4.556343z" id="svg_30"/>
  <path fill="none" stroke="#255" stroke-width="1.5" stroke-opacity="null" fill-opacity="null" d="m373.497162,262.749237c-1.63797,-0.335663 -2.20224,-2.680725 -1.226105,-4.086121c1.295502,-2.17276 4.067291,-3.637909 6.239258,-2.266754c0.043793,-7.652298 0.018311,-15.30452 0.025208,-22.956787c5.414795,-1.238373 10.841156,-2.412827 16.258636,-3.640778c-0.011627,8.576523 -0.02356,17.153061 -0.035553,25.728928c-0.84848,2.594009 -3.59082,4.392807 -5.978607,3.588791c-1.421478,-0.482635 -1.76181,-2.562408 -0.970367,-3.837021c1.084045,-1.900818 3.101776,-3.206039 5.129822,-2.849838c0.578735,-0.066193 1.431152,0.995819 1.186005,-0.206039c0,-5.155823 0,-10.310974 0,-15.466721c-4.970459,1.134262 -9.950989,2.214508 -14.924042,3.336823c-0.022583,6.219711 0.055237,12.441559 -0.056732,18.659271c-0.34314,2.087463 -2.153809,3.532928 -3.900513,3.954132c-0.577667,0.0784 -1.169342,0.145752 -1.747009,0.042084l0,0l0,0.000031zm12.966492,-25.953171c2.554108,-0.569366 5.109772,-1.13237 7.661804,-1.708328c0.325531,-1.467194 -1.12912,-0.514114 -1.839661,-0.478455c-4.360626,0.975571 -8.724335,1.936981 -13.084381,2.916183c-0.324951,1.467606 1.129608,0.514648 1.839813,0.478897c1.807465,-0.403976 3.615051,-0.806091 5.422424,-1.208298zm0,-2.567703c2.554108,-0.570007 5.109772,-1.132401 7.661804,-1.70845c0.325531,-1.467728 -1.12912,-0.514648 -1.839661,-0.478958c-4.360626,0.976059 -8.724335,1.937088 -13.084381,2.917099c-0.324951,1.467255 1.129608,0.514084 1.839813,0.477829c1.807465,-0.402939 3.615051,-0.805328 5.422424,-1.20752z" id="svg_31"/>
  <path fill="none" stroke="#255" stroke-width="1.5" stroke-opacity="null" fill-opacity="null" d="m18.3848,316.409515c-1.92218,-0.304199 -2.58508,-2.436829 -1.43906,-3.714966c1.52092,-1.974548 4.774031,-3.306732 7.323,-2.059753c0.050819,-6.979584 0.02162,-13.959625 0.029331,-20.939331c6.355438,-1.102783 12.72537,-2.145844 19.083029,-3.240387c-0.013741,7.796783 -0.027538,15.592804 -0.041298,23.389771c-0.996071,2.358398 -4.214512,3.993042 -7.017021,3.261963c-1.66843,-0.437958 -2.06842,-2.329163 -1.139412,-3.487244c1.272293,-1.728424 3.640343,-2.915375 6.020943,-2.591064c0.67934,-0.061279 1.67971,0.904877 1.39254,-0.187775c-0.02356,-6.16684 0.058769,-12.335052 -0.060661,-18.500549c-1.037231,-0.337921 -2.881699,0.440063 -4.209782,0.50235c-4.441109,0.759552 -8.891539,1.477875 -13.322369,2.281158c0.133751,6.832642 0.07139,13.670105 0.051451,20.504974c0.23521,1.559601 -0.74407,3.02948 -2.233301,3.842957c-1.28496,0.820648 -2.87265,1.115814 -4.437389,0.937897l0,0z" id="svg_32"/>
  <path fill="none" stroke="#255" stroke-width="1.5" stroke-opacity="null" fill-opacity="null" d="m341.200378,368.202637c-1.335938,-0.387909 -2.344116,-2.270782 -2.009827,-4.227936c0.473053,-2.745514 2.265381,-4.64502 4.058655,-5.547211c1.194855,-0.566772 2.550629,-0.48053 3.672333,0.362854c0.100006,-10.487061 0.042969,-20.976868 0.058228,-31.465179c0.40451,0 0.924347,-0.186401 0.814148,0.651947c0.05722,1.882965 0.704193,3.6073 1.699371,4.822235c2.220337,2.956116 4.717773,6.166626 5.228027,10.672211c0.144043,1.901611 -0.010681,3.815735 -0.306061,5.672394c0.874878,2.334778 0.822235,5.163269 0.466614,7.693085c-0.22995,1.337708 -0.605835,2.625336 -1.083313,3.817657c-1.128052,0.750854 0.13385,-1.226166 0.117706,-1.939484c0.610107,-2.139435 0.679901,-4.522095 0.402161,-6.77597c-0.603821,-3.296753 -2.889374,-4.908478 -4.727051,-6.631226c-0.665161,-0.372314 -2.086365,-2.613647 -1.804504,-0.416168c-0.061737,5.957947 -0.050995,11.916382 -0.070709,17.874237c-0.771179,2.762756 -2.540375,4.870941 -4.59552,5.3992c-0.629974,0.15625 -1.289337,0.212585 -1.920258,0.037354l0,0zm12.81543,-22.527069c0.018799,-3.39151 -1.748596,-6.134033 -3.480103,-8.146088c-0.866028,-0.933136 -1.783905,-1.921753 -2.758606,-2.526093c0.060181,1.950439 0.684875,3.849976 1.43158,5.469147c1.408142,2.696289 3.534027,4.499542 4.71344,7.469208c0.141815,-0.737122 0.098877,-1.511627 0.093689,-2.266174z" id="svg_33"/>
  <path fill="none" stroke="#255" stroke-width="1.5" stroke-opacity="null" fill-opacity="null" d="m393.196899,120.641144c1.231415,0.001556 2.407562,0.205856 3.522369,0.547379l-0.881287,1.461708l6.258545,0l-1.56488,-2.598137l-1.563904,-2.597031l-0.823578,1.368477c-1.542419,-0.540703 -3.206085,-0.843277 -4.946381,-0.843277c-8.007111,0 -14.496521,6.220078 -14.496521,13.89373c0,3.184662 1.130585,6.110794 3.011749,8.455383l2.203369,-1.622101c-1.520935,-1.894638 -2.435883,-4.258911 -2.440308,-6.832611c0.01062,-6.203964 5.24881,-11.224014 11.720825,-11.233543l0,0l0,0.000023zm11.487122,2.780426l-2.203247,1.622772c1.520844,1.893799 2.434937,4.256714 2.439362,6.830994c-0.01059,6.204056 -5.24884,11.223175 -11.722351,11.233551c-1.145966,-0.001572 -2.243958,-0.180252 -3.290161,-0.479065l0.830078,-1.375153l-6.25946,0l1.563751,2.596375l1.565125,2.600189l0.87326,-1.451416c1.479462,0.493698 3.063477,0.769287 4.717407,0.769958c8.008606,-0.001343 14.496674,-6.221603 14.499329,-13.895081c-0.002655,-3.18483 -1.132813,-6.110283 -3.013092,-8.453133l0,0l0,0.000008z" id="svg_34"/>
  <path fill="none" stroke="#255" stroke-width="1.5" stroke-opacity="null" fill-opacity="null" d="m210.937119,384.898163c-3.324768,-1.373993 -5.708038,-5.740967 -5.16626,-9.467316c0.341461,-2.348999 7.546112,-16.61087 8.17543,-16.182526c0.205444,0.138489 2.032837,3.463837 4.061264,7.388123c3.249023,6.286621 3.687805,7.459381 3.687805,9.854462c0,4.855438 -3.532761,8.832153 -7.774338,8.752991c-1.23761,-0.023712 -2.580383,-0.179291 -2.983902,-0.345734l0,0zm3.331024,-2.441925c0.10994,-0.628693 -0.14711,-0.935455 -0.784256,-0.935455c-1.452042,0 -3.466644,-2.023285 -3.916611,-3.934204c-0.480179,-2.037628 -1.753143,-2.28006 -1.941132,-0.369141c-0.362091,3.681061 6.031509,8.724304 6.641983,5.2388l0,0l0.000015,0z" id="svg_35"/>
  <path fill="none" stroke="#255" stroke-width="1.5" stroke-opacity="null" fill-opacity="null" d="m356.338013,89.373001l12,-27l12,27l-24,0l0,0l0,0z" id="svg_36"/>
  <path fill="none" stroke="#255" stroke-width="1.5" stroke-opacity="null" fill-opacity="null" d="m407.681946,208.033157l0,-33.002457l25.003265,33.002457l-25.003265,0z" id="svg_37"/>
  <path fill="none" stroke="#255" stroke-width="1.5" stroke-opacity="null" fill-opacity="null" d="m240.146439,56.939449l12.998077,-13.499981l12.998123,13.499981l-12.998123,13.499989l-12.998077,-13.499989z" id="svg_38"/>
  <path fill="none" stroke="#255" stroke-width="1.5" stroke-opacity="null" fill-opacity="null" d="m372.505829,312.202576l0,0c0,-8.836304 6.938843,-15.999451 15.498383,-15.999451l0,0c4.110504,0 8.052582,1.686005 10.958984,4.686096c2.906433,3.000427 4.539764,7.069763 4.539764,11.313354l0,0c0,8.835968 -6.93927,15.999084 -15.498749,15.999084l0,0c-8.559509,0 -15.498383,-7.163116 -15.498383,-15.999084zm7.748993,0l0,0c0,4.417969 3.469574,7.999542 7.74939,7.999542c4.279724,0 7.74939,-3.581573 7.74939,-7.999542c0,-4.418335 -3.469666,-7.999908 -7.74939,-7.999908l0,0c-4.279816,0 -7.74939,3.581573 -7.74939,7.999908z" id="svg_39"/>
  <path fill="none" stroke="#255" stroke-width="1.5" stroke-opacity="null" fill-opacity="null" d="m296.376892,31.439619l15,-11.457209l15,11.457209l-5.729492,18.538931l-18.541077,0l-5.729431,-18.538931z" id="svg_40"/>
  <path fill="none" stroke="#255" stroke-width="1.5" stroke-opacity="null" fill-opacity="null" d="m447.181671,273.552002c0,1.196655 -7.610596,2.166718 -16.999817,2.166718m16.999817,-2.166718l0,0c0,1.196655 -7.610596,2.166718 -16.999817,2.166718c-9.388885,0 -17.000153,-0.970062 -17.000153,-2.166718m0,0l0,0c0,-1.196899 7.611267,-2.167053 17.000153,-2.167053c9.389221,0 16.999817,0.970154 16.999817,2.167053l0,8.667694c0,1.196686 -7.610596,2.16684 -16.999817,2.16684c-9.388885,0 -17.000153,-0.970154 -17.000153,-2.16684l0,-8.667694z" id="svg_41"/>
  <path fill="none" stroke="#255" stroke-width="1.5" stroke-opacity="null" fill-opacity="null" d="m250.994019,359.802002l10.695984,0l3.304016,-11.838989l3.304993,11.838989l10.695007,0l-8.652008,7.317017l3.304993,11.839966l-8.652985,-7.316986l-8.652008,7.316986l3.304993,-11.839966l-8.652985,-7.317017l0,0l0,0z" id="svg_42"/>
  <path fill="none" stroke="#255" stroke-width="1.5" stroke-opacity="null" fill-opacity="null" d="m9.70105,372.292969l7.713711,-12.498291l20.568928,0l7.713711,12.498291l-7.713711,12.49826l-20.568928,0l-7.713711,-12.49826z" id="svg_43"/>
  <path fill="none" stroke="#255" stroke-width="1.5" stroke-opacity="null" fill-opacity="null" d="m180.982391,38.634579l0,0c0,-7.179869 5.820267,-12.999878 13.000031,-12.999878l0,0c3.447845,0 6.75441,1.369629 9.1922,3.80768c2.438034,2.437719 3.807785,5.744169 3.807785,9.192198l0,0c0,7.179722 -5.820419,13.000153 -12.999969,13.000153l0,0c-7.179764,0 -13.000031,-5.820431 -13.000031,-13.000153l-0.000015,0zm13.000031,-12.999878l0,26.000038m-13.000031,-13.00016l26.000015,0" id="svg_44"/>
  <path fill="none" stroke="#255" stroke-width="1.5" stroke-opacity="null" fill-opacity="null" d="m19.31831,82.12326l43.999989,0l0,11.999969l-43.999989,0l0,-11.999969z" id="svg_45"/>
  <path fill="none" stroke="#255" stroke-width="1.5" stroke-opacity="null" fill-opacity="null" d="m91.817078,362.162292c-1.61412,-1.719666 -3.861259,-1.167725 -5.01844,1.235291l-9.074867,18.853302c-0.826103,1.714691 -0.561234,4.103546 0.59288,5.33316c1.153847,1.227173 2.757736,0.832642 3.583878,-0.884399l6.407692,-13.310425l-0.835243,-0.891235l-6.406715,13.31189l0,0c-0.496323,1.027924 -1.459167,1.265503 -2.14959,0.530365c-0.69136,-0.735931 -0.84977,-2.169586 -0.354485,-3.199493l0,0l9.073799,-18.852356l0.001175,-0.000977l-0.002045,-0.001465c0.825142,-1.711243 2.434105,-2.106689 3.584984,-0.880554c1.150848,1.227234 1.417038,3.621826 0.593086,5.334167l0,-0.000977l-9.946587,20.664063l0.000931,0.002014c-1.154839,2.398682 -3.407158,2.952545 -5.019272,1.235413c-1.612099,-1.720642 -1.9832,-5.068512 -0.829178,-7.469086l7.228661,-15.016724l-0.835541,-0.89032l-7.228378,15.017181c-1.4869,3.088715 -1.009171,7.384583 1.067497,9.596863c2.076637,2.213409 4.963913,1.501892 6.450737,-1.585449l9.946381,-20.665131c1.15403,-2.402161 0.783943,-5.743835 -0.831375,-7.465179l0,0l0.000015,0.000031l0,0.000031z" id="svg_46"/>
  <path fill="none" stroke="#255" stroke-width="1.5" stroke-opacity="null" fill-opacity="null" d="m444.177673,81.241867l-4.018036,-3.747208l0,-8.95578l-3.443665,0l0,5.738808l-8.036438,-7.49839l-15.497894,14.46257l3.689819,-0.0821l0,14.61953l23.452271,0l0,-14.53743l3.853943,0zm-15.498138,12.445274l-7.653839,0l0,-8.567101l7.653839,0l0,8.567101zm7.435822,-3.672882l-5.029297,0l0,-4.946457l5.029297,0l0,4.946457z" id="svg_47"/>
  <path fill="none" stroke="#255" stroke-width="1.5" stroke-opacity="null" fill-opacity="null" d="m11.95898,215.928207l0,0c0,-1.680725 1.43686,-3.043472 3.208501,-3.043472l1.458559,0l0,0l6.999941,0l13.124569,0c0.850922,0 1.666809,0.320328 2.268551,0.891434c0.601509,0.570633 0.939949,1.344833 0.939949,2.152039l0,7.608551l0,0l0,4.565598l0,0c0,1.680679 -1.436279,3.043427 -3.2085,3.043427l-13.124569,0l-9.14472,7.738922l2.144779,-7.738922l-1.458559,0c-1.771641,0 -3.208501,-1.362747 -3.208501,-3.043427l0,0l0,-4.565598l0,0l0,-7.608551z" id="svg_48"/>
  <path fill="none" stroke="#255" stroke-width="1.5" stroke-opacity="null" fill-opacity="null" d="m419.958984,349.928223l0,0c0,-1.680725 1.436859,-3.043488 3.208496,-3.043488l1.458557,0l0,0l6.999939,0l13.124573,0c0.850922,0 1.666809,0.320343 2.268555,0.891449c0.601501,0.570618 0.939941,1.344818 0.939941,2.152039l0,7.608521l0,0l0,4.565613l0,0c0,1.680664 -1.436279,3.043427 -3.208496,3.043427l-13.124573,0l-9.144714,7.738922l2.144775,-7.738922l-1.458557,0c-1.771637,0 -3.208496,-1.362762 -3.208496,-3.043427l0,0l0,-4.565613l0,0l0,-7.608521z" id="svg_49"/>
  <path fill="none" stroke="#255" stroke-width="1.5" stroke-opacity="null" fill-opacity="null" d="m58.958981,29.928209l0,0c0,-1.680729 1.436859,-3.043468 3.2085,-3.043468l1.458561,0l0,0l6.999935,0l13.124573,0c0.850922,0 1.666809,0.320318 2.268547,0.89143c0.601524,0.570629 0.939964,1.34483 0.939964,2.152039l0,7.608549l0,0l0,4.565601l0,0c0,1.680679 -1.436279,3.043419 -3.208504,3.043419l-13.124565,0l-9.144722,7.738911l2.144779,-7.738911l-1.458561,0c-1.771637,0 -3.2085,-1.36274 -3.2085,-3.043419l0,0l0,-4.565601l0,0l0,-7.608549l-0.000008,0z" id="svg_50"/>
  <path fill="none" stroke="#255" stroke-width="1.5" stroke-opacity="null" fill-opacity="null" d="m455.384796,171.409515c-1.92218,-0.304199 -2.585083,-2.436829 -1.439056,-3.714966c1.520935,-1.974548 4.774048,-3.306732 7.322998,-2.059753c0.050812,-6.979584 0.021637,-13.959625 0.029327,-20.939331c6.355438,-1.102768 12.725372,-2.145828 19.083038,-3.240387c-0.013733,7.796783 -0.027527,15.592804 -0.041321,23.389771c-0.996063,2.358398 -4.214478,3.993042 -7.016998,3.261963c-1.668427,-0.437958 -2.06842,-2.329163 -1.139404,-3.487244c1.272278,-1.728424 3.64035,-2.915375 6.020935,-2.591064c0.679352,-0.061279 1.679779,0.904892 1.392609,-0.187759c-0.02356,-6.16684 0.058746,-12.335037 -0.060669,-18.500549c-1.037231,-0.337921 -2.881714,0.440048 -4.209839,0.50235c-4.441101,0.759552 -8.891541,1.477859 -13.322388,2.281158c0.133759,6.832642 0.071411,13.67009 0.051453,20.504974c0.235229,1.559586 -0.744049,3.02948 -2.233276,3.842957c-1.284973,0.820663 -2.872681,1.115799 -4.437408,0.937912l0,0l0,-0.000031z" id="svg_51"/>
  <path fill="none" stroke="#255" stroke-width="1.5" stroke-opacity="null" fill-opacity="null" d="m148.497162,382.749237c-1.63797,-0.335663 -2.20224,-2.680725 -1.226105,-4.086121c1.295502,-2.17276 4.067291,-3.637909 6.239258,-2.266754c0.043793,-7.652313 0.018311,-15.304535 0.025208,-22.956787c5.414795,-1.238373 10.841171,-2.412842 16.258652,-3.640778c-0.011627,8.576508 -0.02356,17.153046 -0.035538,25.728912c-0.84848,2.594025 -3.59082,4.392822 -5.978622,3.588806c-1.421478,-0.482635 -1.76181,-2.562408 -0.970367,-3.837036c1.084061,-1.900818 3.101776,-3.206055 5.129807,-2.849823c0.578751,-0.066193 1.431152,0.995819 1.186005,-0.206055c0,-5.155823 0,-10.310974 0,-15.466705c-4.970459,1.134277 -9.950989,2.214508 -14.924042,3.336823c-0.022583,6.219696 0.055237,12.441559 -0.056732,18.659271c-0.34314,2.087463 -2.153809,3.532928 -3.900497,3.954132c-0.577682,0.0784 -1.169342,0.145782 -1.747009,0.042114l0,0l-0.000015,0zm12.966492,-25.953156c2.554108,-0.569397 5.109772,-1.132385 7.661789,-1.708344c0.325531,-1.467194 -1.12912,-0.51413 -1.839645,-0.478455c-4.360641,0.975555 -8.724335,1.936981 -13.084381,2.916168c-0.324951,1.46759 1.129608,0.514648 1.839798,0.478912c1.807449,-0.403992 3.615051,-0.806091 5.422409,-1.208282l0.000031,0zm0,-2.567719c2.554108,-0.570038 5.109772,-1.132416 7.661789,-1.708466c0.325531,-1.467712 -1.12912,-0.514648 -1.839645,-0.478943c-4.360641,0.976044 -8.724335,1.937073 -13.084381,2.917114c-0.324951,1.467224 1.129608,0.514038 1.839798,0.477814c1.807449,-0.402924 3.615051,-0.805328 5.422409,-1.20752l0.000031,0z" id="svg_52"/>
  <path fill="none" stroke="#255" stroke-width="1.5" stroke-opacity="null" fill-opacity="null" d="m20.90222,151.889496c-2.041319,1.838654 -2.84009,4.348389 -2.455469,6.73056l3.786499,-3.401001c0,-0.006592 0.01507,-0.013168 0.01507,-0.013168c0.25894,-0.439819 0.562071,-0.865524 0.9762,-1.231644c2.144861,-1.937469 5.63574,-1.937469 7.78787,0c2.152309,1.936752 2.152309,5.072479 0,7.016205c-0.41437,0.365692 -0.880251,0.64502 -1.368231,0.871979c-0.007318,0.006592 -0.007318,0.006592 -0.01495,0.012726l-3.7792,3.409134c2.64776,0.339447 5.436001,-0.373291 7.477051,-2.210693c3.431728,-3.088776 3.431728,-8.094879 0,-11.184067c-3.431551,-3.087891 -8.99317,-3.087891 -12.424841,0l0,-0.000031zm-1.34601,19.046921c-0.251431,0.44519 -0.56213,0.864319 -0.968719,1.238251c-2.15222,1.930267 -5.64312,1.930267 -7.79531,0c-2.15229,-1.936981 -2.15229,-5.0802 0,-7.01712c0.41406,-0.366104 0.880239,-0.644974 1.36807,-0.871872c0.00732,-0.006592 0.00732,-0.013611 0.01517,-0.013611l3.77877,-3.408905c-2.64773,-0.345337 -5.43579,0.374054 -7.476891,2.210419c-3.43168,3.082611 -3.43168,8.095154 0,11.184525c3.43179,3.088577 8.9931,3.088577 12.42492,0c2.041231,-1.837738 2.84012,-4.347656 2.45557,-6.737137l-3.78668,3.407501c-0.00754,0.007919 -0.00754,0.007919 -0.0149,0.007919l0,0.000031zm-6.19778,-3.468063l2.66244,2.396103c0.65085,0.585968 1.71579,0.585968 2.36664,0l10.05851,-9.054062c0.650721,-0.586761 0.650721,-1.544159 0,-2.129608l-2.66263,-2.396729c-0.650881,-0.585754 -1.7157,-0.585754 -2.36664,0l-10.05832,9.053375c-0.65076,0.584442 -0.65076,1.544373 0,2.13092z" id="svg_53"/>
  <path fill="none" stroke="#255" stroke-width="1.5" stroke-opacity="null" fill-opacity="null" d="m135.124207,29.46471c0.823578,-0.30831 1.498688,-0.5952 0.220367,-0.60355c-1.128998,0.15468 -4.050858,-0.98299 -1.708389,-1.542191c1.463562,-0.583189 4.79689,0.763781 4.814438,-1.54031c-0.264526,-1.444189 -4.564316,-0.316549 -3.149506,-2.253389c1.557251,-0.64957 4.645477,0.880949 5.168579,-1.12912c-0.478439,-1.949171 -3.475067,-0.705132 -4.980377,-1.24379c-1.460114,0.307018 -1.844635,-1.65093 -0.206146,-1.35527c3.786926,-0.208441 7.60144,0.09742 11.376099,-0.327881c0.608948,-0.34446 1.059998,-2.46328 0.290222,-2.60589c-5.497437,-0.11636 -11.006134,-0.00951 -16.495392,-0.355999c-1.972626,-0.02088 -0.465302,-2.16886 0.991943,-1.66444c1.388,-0.46356 1.938599,-1.67916 2.957703,-2.87961c0.519989,-2.62378 -1.981903,-1.65001 -3.004074,-0.88223c-1.141327,0.762899 -3.104218,2.346789 -4.145393,3.17812c-0.912453,0.67323 -3.015427,1.42013 -4.294724,2.32233c-1.09317,0.3964 -2.29007,0.19916 -3.363487,0.27039c0,3.55496 0,7.11009 0,10.66489c3.038193,1.349421 6.235153,2.534611 9.603256,2.399021c1.97348,-0.008081 4.003647,0.067209 5.924866,-0.45108l0,0l0.000015,0zm-12.518219,1.14003c-1.55072,-0.60775 -3.098717,-1.223381 -4.635246,-1.867361c0.072845,-4.439589 0.146446,-8.87904 0.220367,-13.31846c1.226288,-0.047569 3.047623,0.573231 3.92215,-0.34094c2.351624,-0.76973 3.87851,-2.47237 5.940117,-3.75024c1.45166,-1.16271 2.609741,-1.55946 4.10849,-2.441259c1.137512,-0.536901 1.753891,-0.262691 3.035278,-0.02865c0.55957,0.93293 1.252792,1.41506 0.893463,3.19231c-0.751709,0.38548 -1.726746,2.976239 -0.249573,2.996949c4.110291,0.40165 8.28688,-0.162979 12.365204,0.539181c1.015625,1.40228 1.209473,4.55264 -0.648621,5.44184c-1.779694,0.52466 -3.654694,0.26425 -5.482361,0.32745c0,1.32662 0.215561,3.01944 -1.228271,3.685879c-1.06572,1.417971 -1.141479,3.50123 -2.859497,4.5389c-1.443939,1.509781 -3.500488,1.976181 -5.506073,1.926331c-3.289642,0.04565 -6.752228,0.36705 -9.875427,-0.90193l0,0l0,0z" id="svg_54"/>
  <path fill="none" stroke="#255" stroke-width="1.5" stroke-opacity="null" fill-opacity="null" d="m229.318314,12.12326l43.999985,0l0,11.99997l-43.999985,0l0,-11.99997z" id="svg_55"/>
  <path fill="none" stroke="#255" stroke-width="1.5" stroke-opacity="null" fill-opacity="null" d="m484.673309,232.396759c0.024384,-0.221558 0.038361,-0.444824 0.038361,-0.669769c0,-3.914459 -3.675476,-7.088226 -8.21286,-7.088226c-3.519012,0 -6.514679,1.91571 -7.681488,4.603119c-0.773895,-0.731934 -1.878662,-1.200912 -3.118103,-1.200912c-2.335632,0 -4.230438,1.633652 -4.230438,3.649643c0,0.238846 0.029877,0.470673 0.082062,0.695694c-3.115784,0.443008 -5.501953,2.763611 -5.501953,5.577499c0,3.132278 2.941528,5.670959 6.57077,5.670959l20.86087,0c3.629181,0 6.568298,-2.538681 6.568298,-5.670959c0.002075,-2.779251 -2.317596,-5.080872 -5.375519,-5.567062l0,0.000015z" id="svg_56"/>
  <path fill="none" stroke="#255" stroke-width="1.5" stroke-opacity="null" fill-opacity="null" d="m394.305786,35.645569c-4.280579,0 -7.749084,-2.436279 -7.749084,-5.439739l0,0c0,-2.411369 2.238556,-4.442339 5.328674,-5.153349l0,0c0.106873,-2.050301 2.503052,-3.685551 5.447906,-3.686981l0,0c0.942017,0 1.824768,0.171591 2.593903,0.469l0,0c1.635498,-1.90918 4.61145,-3.188929 8.020996,-3.188929l0,0c5.096985,0.001429 9.243408,2.859619 9.362061,6.417929l0,0c3.050812,0.72904 5.246399,2.75028 5.246399,5.14233l0,0c0,3.00346 -3.469055,5.439739 -7.749634,5.439739l0,0l-20.501221,0l0,0zm21.443298,-8.99935c-0.662415,-0.085859 -1.115662,-0.509199 -1.05246,-0.978189l0,0c0.019745,-0.15486 0.035187,-0.304279 0.035187,-0.45097l0,0c-0.011597,-2.62719 -3.038635,-4.754921 -6.78363,-4.757771l0,0c-2.904724,-0.00272 -5.376587,1.28532 -6.342468,3.09074l0,0c-0.157043,0.293261 -0.523499,0.511801 -0.965698,0.571331l0,0c-0.441467,0.059528 -0.898071,-0.047081 -1.197937,-0.279501l0,0c-0.539764,-0.410891 -1.273407,-0.66264 -2.108795,-0.66264l0,0c-1.584778,0.001431 -2.86142,0.89921 -2.869659,2.01022l0,0c0,0.123079 0.023621,0.25032 0.059326,0.38456l0,0c0.062988,0.240721 -0.011658,0.48974 -0.209106,0.690392l0,0c-0.201172,0.203369 -0.50885,0.337479 -0.851624,0.376259l0,0c-2.451172,0.283649 -4.327728,1.76664 -4.324158,3.563761l0,0c0.004272,2.003338 2.314178,3.62199 5.167725,3.627438l0,0l20.501221,0c2.854126,-0.005447 5.159637,-1.6241 5.167419,-3.627438l0,0c0.003845,-1.77494 -1.820862,-3.245611 -4.225342,-3.55818l0,0" id="svg_57"/>
  <path fill="none" stroke="#255" stroke-width="1.5" stroke-opacity="null" fill-opacity="null" d="m493.50235,36.327179l-4.847351,0l0,-1.883789l-12.126068,0l0,1.883789l-4.855042,0c-1.428467,0 -2.582153,1.129971 -2.582153,2.521362l0,13.069309c0,1.39175 1.153687,2.521729 2.582153,2.521729l21.828461,0c1.428711,0 2.589417,-1.129978 2.589417,-2.521729l0,-13.069309c0,-1.391392 -1.160706,-2.521362 -2.589417,-2.521362zm-10.909943,16.690399c-4.326355,0 -7.839294,-3.42157 -7.839294,-7.634609c0,-4.212528 3.512939,-7.633728 7.839294,-7.633728s7.838989,3.4212 7.838989,7.633728c0,4.213039 -3.521118,7.634609 -7.838989,7.634609zm0,-12.754269c-2.906219,0 -5.258301,2.290741 -5.258301,5.119652c0,2.829529 2.352081,5.112919 5.258301,5.112919c2.896454,0 5.249512,-2.28339 5.249512,-5.112919c0,-2.828911 -2.353058,-5.119652 -5.249512,-5.119652z" id="svg_58"/>
  <path fill="none" stroke="#255" stroke-width="1.5" stroke-opacity="null" fill-opacity="null" d="m351.937134,27.898161c-3.324768,-1.373991 -5.708069,-5.740961 -5.16626,-9.467312c0.341431,-2.348999 7.546082,-16.610869 8.175415,-16.182529c0.205444,0.13849 2.032837,3.46384 4.061279,7.38812c3.249023,6.28666 3.687805,7.45945 3.687805,9.85453c0,4.85537 -3.532776,8.83215 -7.774353,8.752989c-1.23761,-0.023779 -2.580383,-0.179289 -2.983887,-0.345798l0,0zm3.330994,-2.441921c0.109955,-0.6287 -0.147095,-0.935459 -0.784241,-0.935459c-1.452026,0 -3.466614,-2.023281 -3.916626,-3.9342c-0.480164,-2.03763 -1.753113,-2.28006 -1.941101,-0.369141c-0.362091,3.681061 6.031525,8.7243 6.641968,5.2388l0,0z" id="svg_59"/>
  <path fill="none" stroke="#255" stroke-width="1.5" stroke-opacity="null" fill-opacity="null" d="m498.728546,182.471222l0,27.002899l34.003876,0l0,-27.002899l-34.003876,0zm28.650848,24.685608l-23.297607,0l0,-22.368256l23.297607,0l0,22.368256zm-17.632446,-13.601105c1.798767,0 3.254883,-1.401917 3.254883,-3.12149c0,-1.727509 -1.456116,-3.129288 -3.254883,-3.129288c-1.794678,0 -3.251465,1.401779 -3.251465,3.129288c0,1.719574 1.456787,3.12149 3.251465,3.12149zm16.37561,2.71553l-6.195374,-5.940628l-8.708252,8.361588l-2.413635,-2.317429l-3.466278,3.327896l0,6.243683l20.783539,0l0,-9.67511z" id="svg_60"/>
  <path fill="none" stroke="#255" stroke-width="1.5" stroke-opacity="null" fill-opacity="null" d="m522.005859,97.376923c-0.005127,-2.589111 -1.996704,-4.685524 -4.454041,-4.685524l0,-0.00721l-13.650574,0c-0.5625,-1.894859 -2.239746,-3.289665 -4.236572,-3.289665l-3.203186,0c-2.458984,0 -4.4505,2.095276 -4.455658,4.684715l0,16.631783c0.005157,2.582207 1.996674,4.678307 4.455658,4.685486l21.092163,0c2.455505,-0.007179 4.448914,-2.103279 4.452209,-4.685486l0,-13.334114l0,0l0,0.000023l0,-0.000008zm-25.544373,-5.643799l3.203186,0c1.164185,0 2.13446,0.98053 2.20752,2.203308l0.064697,1.09433l15.61676,0c1.216736,0.007172 2.222717,1.065826 2.226196,2.346161l0,0.5802c-0.659363,-0.400421 -1.412292,-0.651672 -2.228027,-0.651672l-21.090332,0c-0.815643,0 -1.570282,0.251251 -2.227783,0.651672l0,-3.877884c0.003174,-1.279999 1.009521,-2.338959 2.227783,-2.346115zm21.090332,21.317375l-21.090332,0c-1.216736,0 -2.222778,-1.05912 -2.227844,-2.339478l0,-8.720345l0.001648,0c0.001587,-1.280167 1.007874,-2.346497 2.226196,-2.346497l21.092163,0c1.216736,0 2.216003,1.059212 2.226196,2.333023l0,8.726166c-0.003479,1.288017 -1.011108,2.347137 -2.228027,2.347137l0,-0.000008z" id="svg_61"/>
  <path fill="none" stroke="#255" stroke-width="1.5" stroke-opacity="null" fill-opacity="null" d="m499.242096,305.447632l-28.740265,0l14.371826,8.452362l14.368439,-8.452362zm-13.520477,12.05011c-0.262817,0.152802 -0.55719,0.232697 -0.847961,0.232697s-0.585205,-0.079895 -0.851257,-0.232697l-14.648804,-8.610992l0,17.564148l30.999969,0l0,-17.564148l-14.651947,8.610992z" id="svg_62"/>
  <path fill="none" stroke="#255" stroke-width="1.5" stroke-opacity="null" fill-opacity="null" d="m21.75185,14.65429c-3.31377,0 -6.00258,3.014791 -6.00258,6.733819c0,3.719681 6.00258,16.27014 6.00258,16.27014s5.99995,-12.550449 5.99995,-16.27014c0,-3.719028 -2.686081,-6.733819 -5.99995,-6.733819zm0,9.952109c-1.58499,0 -2.8694,-1.44066 -2.8694,-3.21829s1.28441,-3.2183 2.8694,-3.2183s2.866859,1.441351 2.866859,3.2183s-1.284439,3.21829 -2.866859,3.21829z" id="svg_63"/>
  <path fill="none" stroke="#255" stroke-width="1.5" stroke-opacity="null" fill-opacity="null" d="m544.405762,373.821259c0.025146,-0.205414 0.042603,-0.412506 0.042603,-0.621307c0,-3.63147 -3.898071,-6.575928 -8.696533,-6.575928c-3.728027,0 -6.904358,1.777222 -8.136047,4.270538c-0.823303,-0.679108 -1.987122,-1.114227 -3.303406,-1.114227c-2.471558,0 -4.475464,1.515594 -4.475464,3.385925c0,0.221619 0.025391,0.436768 0.084778,0.645447c-3.30365,0.410919 -5.825989,2.563843 -5.825989,5.174255c0,2.905975 3.116821,5.261139 6.955322,5.261139l3.219116,0c-0.178467,-0.279327 -0.280151,-0.584229 -0.280151,-0.903778c0,-0.56189 0.288269,-1.093384 0.814697,-1.488373l6.021118,-4.554626c0.518433,-0.396545 1.214844,-0.616547 1.961853,-0.616547c0.756287,0 1.452087,0.221527 1.97052,0.618164l6.021118,4.554749c0.518005,0.39325 0.815063,0.924744 0.815063,1.486633c0,0.31955 -0.101624,0.624451 -0.280273,0.903778l1.826111,0c3.838684,0 6.955505,-2.355164 6.955505,-5.261139c0,-2.578186 -2.45459,-4.713501 -5.689941,-5.164703zm-10.63269,4.220703c-0.271973,-0.203766 -0.628479,-0.304901 -0.985413,-0.304901s-0.704529,0.101135 -0.976135,0.304901l-6.021118,4.556366c-0.543701,0.409515 -0.543701,1.078949 0,1.488281l0.772827,0.584351c0.543579,0.407776 1.341492,0.472076 1.774658,0.142975s0.789917,-0.125275 0.789917,0.454346l0,1.303528c0,0.578003 0.62793,1.051666 1.392578,1.051666l4.543518,0c0.764465,0 1.39325,-0.473663 1.39325,-1.051666l0,-1.303528c0,-0.57962 0.356079,-0.78183 0.789368,-0.454346c0.433289,0.329102 1.23114,0.264801 1.774841,-0.142975l0.772888,-0.584351c0.543274,-0.409332 0.543274,-1.078766 0,-1.488281l-6.021179,-4.556366z" id="svg_64"/>
  <path fill="none" stroke="#255" stroke-width="1.5" stroke-opacity="null" fill-opacity="null" d="m532.876831,259.66864c6.390686,-15.356018 31.42981,0 0,19.743591c-31.430084,-19.743591 -6.390625,-35.099609 0,-19.743591z" id="svg_65"/>
  <path fill="none" stroke="#255" stroke-width="1.5" stroke-opacity="null" fill-opacity="null" d="m534.200378,52.202641c-1.335938,-0.387909 -2.344116,-2.27079 -2.009827,-4.22794c0.473022,-2.74551 2.265381,-4.64502 4.058655,-5.547211c1.194885,-0.566769 2.550598,-0.48053 3.672302,0.36285c0.100037,-10.487061 0.042969,-20.97686 0.058228,-31.46518c0.404541,0 0.924377,-0.1864 0.814209,0.65195c0.05719,1.88297 0.704163,3.6073 1.699341,4.822241c2.220337,2.95611 4.717773,6.166618 5.228027,10.672209c0.144043,1.901611 -0.010681,3.815731 -0.30603,5.672392c0.874878,2.334778 0.822205,5.163269 0.466553,7.693089c-0.229919,1.3377 -0.605835,2.625332 -1.083252,3.81765c-1.128052,0.750858 0.133789,-1.226158 0.117676,-1.93948c0.610107,-2.139439 0.679932,-4.522099 0.402161,-6.77597c-0.603821,-3.296749 -2.889343,-4.90848 -4.727051,-6.631229c-0.665161,-0.372311 -2.086365,-2.61364 -1.804504,-0.416161c-0.061768,5.957939 -0.051025,11.916382 -0.070679,17.874229c-0.77124,2.76276 -2.540405,4.870941 -4.595581,5.3992c-0.629944,0.15625 -1.289307,0.212589 -1.920227,0.037361l0,0zm12.81543,-22.527071c0.018799,-3.39151 -1.748596,-6.134039 -3.480103,-8.14609c-0.866028,-0.93314 -1.783875,-1.921749 -2.758606,-2.526091c0.060181,1.950441 0.684875,3.84997 1.43158,5.469141c1.408142,2.696289 3.533997,4.49955 4.71344,7.46921c0.141846,-0.73712 0.098877,-1.511629 0.093689,-2.266171z" id="svg_66"/>
  <path fill="none" stroke="#255" stroke-width="1.5" stroke-opacity="null" fill-opacity="null" d="m468.196899,380.641144c1.231415,0.001556 2.407562,0.205872 3.522369,0.547394l-0.881287,1.4617l6.258545,0l-1.56488,-2.598145l-1.563904,-2.597015l-0.823578,1.368469c-1.542419,-0.54071 -3.206085,-0.843262 -4.946381,-0.843262c-8.007111,0 -14.496521,6.220062 -14.496521,13.893738c0,3.184631 1.130585,6.110779 3.011749,8.455353l2.203369,-1.622101c-1.520935,-1.894653 -2.435883,-4.258881 -2.440308,-6.832581c0.01062,-6.203979 5.24881,-11.22403 11.720825,-11.233551l0,0zm11.487122,2.780426l-2.203247,1.622772c1.520844,1.893799 2.434937,4.256744 2.439362,6.830994c-0.01059,6.204071 -5.24884,11.223175 -11.722351,11.233551c-1.145966,-0.001556 -2.243958,-0.180237 -3.290161,-0.479065l0.830078,-1.375153l-6.25946,0l1.563751,2.596375l1.565125,2.600189l0.87326,-1.451416c1.479462,0.493713 3.063477,0.769287 4.717407,0.769958c8.008606,-0.001343 14.496674,-6.221619 14.499329,-13.895081c-0.002655,-3.184814 -1.132813,-6.110291 -3.013092,-8.453125l0,0z" id="svg_67"/>
  <path fill="none" stroke="#255" stroke-width="1.5" stroke-opacity="null" fill-opacity="null" d="m355.958984,391.928223l0,0c0,-1.680725 1.436859,-3.043488 3.208496,-3.043488l1.458557,0l0,0l6.999939,0l13.124573,0c0.850922,0 1.666809,0.320343 2.268555,0.891449c0.601501,0.570618 0.939941,1.344818 0.939941,2.152039l0,7.608521l0,0l0,4.565613l0,0c0,1.680664 -1.436279,3.043427 -3.208496,3.043427l-13.124573,0l-9.144714,7.738922l2.144775,-7.738922l-1.458557,0c-1.771637,0 -3.208496,-1.362762 -3.208496,-3.043427l0,0l0,-4.565613l0,0l0,-7.608521z" id="svg_68"/>
  <path fill="none" stroke="#255" stroke-width="1.5" stroke-opacity="null" fill-opacity="null" d="m276.146423,401.939453l12.998108,-13.5l12.998108,13.5l-12.998108,13.5l-12.998108,-13.5z" id="svg_69"/>
  <path fill="none" stroke="#255" stroke-width="1.5" stroke-opacity="null" fill-opacity="null" d="m561.926331,143.669464c-0.968323,-0.449982 -2.13385,-0.06427 -2.606201,0.867538c-0.470032,0.931641 -0.063965,2.052261 0.903748,2.503784c3.036865,1.420288 5.132874,4.407227 5.130615,7.8685c-0.009583,4.825989 -4.074463,8.731461 -9.098022,8.74025c-5.025085,-0.008789 -9.090637,-3.914261 -9.100342,-8.74025c-0.001404,-3.464142 2.095276,-6.453659 5.135193,-7.869949c0.969971,-0.451523 1.372314,-1.572113 0.903687,-2.503754c-0.470032,-0.930389 -1.634033,-1.318985 -2.604004,-0.868896c-4.340027,2.019287 -7.333069,6.296478 -7.335266,11.242599c0.002197,6.896637 5.819458,12.485748 13.000732,12.487137c7.179749,-0.001358 12.997803,-5.5905 12.999268,-12.487137c-0.002197,-4.943222 -2.991577,-9.218964 -7.329407,-11.239838l0,0.000015zm-5.669861,9.210571c1.076233,0 1.94873,-0.837524 1.94873,-1.873703l0,-8.741669c0,-1.034561 -0.872498,-1.872101 -1.94873,-1.872101c-1.078491,0 -1.950256,0.83754 -1.950256,1.872101l0,8.74025c0,1.036133 0.871765,1.875092 1.950256,1.875092l0,0.000031z" id="svg_70"/>
  <path fill="none" stroke="#255" stroke-width="1.5" stroke-opacity="null" fill-opacity="null" d="m541.982422,324.634583l0,0c0,-7.179871 5.820251,-12.999878 13,-12.999878l0,0c3.447815,0 6.754395,1.369629 9.1922,3.807678c2.438049,2.437714 3.8078,5.744171 3.8078,9.1922l0,0c0,7.179718 -5.820435,13.000153 -13,13.000153l0,0c-7.179749,0 -13,-5.820435 -13,-13.000153zm13,-12.999878l0,26.000031m-13,-13.000153l26,0" id="svg_71"/>
  <path fill="none" stroke="#255" stroke-width="1.5" stroke-opacity="null" fill-opacity="null" d="m302.958984,219.928207l0,0c0,-1.680725 1.436859,-3.043472 3.208496,-3.043472l1.458557,0l0,0l6.999939,0l13.124573,0c0.850922,0 1.666809,0.320328 2.268555,0.891434c0.601501,0.570633 0.939941,1.344833 0.939941,2.152039l0,7.608551l0,0l0,4.565598l0,0c0,1.680679 -1.436279,3.043427 -3.208496,3.043427l-13.124573,0l-9.144714,7.738907l2.144775,-7.738907l-1.458557,0c-1.771637,0 -3.208496,-1.362747 -3.208496,-3.043427l0,0l0,-4.565598l0,0l0,-7.608551l0,0z" id="svg_11"/>
 </g>
</svg>